<?xml version="1.0" encoding="UTF-8" standalone="no"?> <svg xmlns="http://www.w3.org/2000/svg" xmlns:xlink="http://www.w3.org/1999/xlink" viewBox="0 0 24 24"><defs><style>.cls-1{fill:url(#linear-gradient);}</style><linearGradient id="linear-gradient" x1="2" y1="12" x2="21.84" y2="12" gradientUnits="userSpaceOnUse"><stop offset="0" stop-color="#00a99d"/><stop offset="0.19" stop-color="#09a9ac"/><stop offset="0.72" stop-color="#20abd3"/><stop offset="1" stop-color="#29abe2"/></linearGradient></defs><title>shopping cart</title><g id="Layer_2" data-name="Layer 2"><path class="cls-1" d="M21.82,8.54,21.13,14a2.2,2.2,0,0,1-2.18,1.92H9.12A2.2,2.2,0,0,1,6.94,14L6.33,9.2A1,1,0,0,1,6.26,9L5.4,4H3A1,1,0,0,1,3,2H6.24a1,1,0,0,1,1,.83L7.8,6.16a2.18,2.18,0,0,1,.62-.1H19.64a2.2,2.2,0,0,1,2.18,2.48ZM20.37,19.48A2.52,2.52,0,1,0,17.84,22,2.52,2.52,0,0,0,20.37,19.48Zm-2,0a.52.52,0,1,1-.52-.52A.52.52,0,0,1,18.37,19.48Zm-5,0A2.52,2.52,0,1,0,10.84,22,2.52,2.52,0,0,0,13.37,19.48Zm-2,0a.52.52,0,1,1-.52-.52A.52.52,0,0,1,11.37,19.48Z"/></g></svg>